<svg width="276" height="290" viewBox="0 0 276 290" fill="none" xmlns="http://www.w3.org/2000/svg">
<path d="M45.5213 92.5426C56.5284 104.156 70.6175 108.654 85.4342 112.517C83.1027 112.991 80.7623 113.425 78.4411 113.945C50.544 120.195 35.9457 135.593 32.5984 165.194C30.492 183.823 30.6805 202.72 30.0634 221.504C29.7697 230.442 29.9989 239.397 29.9906 248.987C67.3135 247.161 96.7403 231.695 116.088 200.31C138.591 163.805 138.378 126.078 116.333 89.2304C95.2612 54.0103 56.3863 39.6147 30.4073 41.0222C30.193 59.6273 32.0697 77.5552 45.5213 92.5426Z" fill="white"/>
<path d="M245.94 225.974C245.22 205.681 244.614 185.883 243.694 166.1C243.503 161.996 242.326 157.9 241.298 153.878C235.374 130.695 219.412 118.634 196.826 113.994C194.775 113.572 192.723 113.157 190.169 112.077C231.006 105.761 247.337 80.6108 245.735 40.7008C212.066 42.0969 184.295 55.3334 164.602 82.5699C139.07 117.881 136.126 156.169 156.548 194.637C175.13 229.64 205.833 246.962 245.923 249.387C245.929 241.346 245.936 233.91 245.94 225.974Z" fill="white"/>
</svg>
