<svg width="1292" height="401" viewBox="0 0 1292 401" fill="none" xmlns="http://www.w3.org/2000/svg">
<path d="M45.5213 148.043C56.5284 159.656 70.6175 164.154 85.4342 168.017C83.1027 168.491 80.7623 168.925 78.4411 169.445C50.544 175.695 35.9457 191.093 32.5984 220.694C30.492 239.323 30.6805 258.22 30.0634 277.004C29.7697 285.942 29.9989 294.897 29.9906 304.487C67.3135 302.661 96.7403 287.195 116.088 255.81C138.591 219.305 138.378 181.578 116.333 144.73C95.2612 109.51 56.3863 95.1147 30.4073 96.5222C30.193 115.127 32.0697 133.055 45.5213 148.043Z" fill="white"/>
<path d="M245.94 281.474C245.22 261.181 244.614 241.383 243.694 221.6C243.503 217.496 242.326 213.4 241.298 209.378C235.374 186.195 219.412 174.134 196.826 169.494C194.775 169.072 192.723 168.657 190.169 167.577C231.006 161.261 247.337 136.111 245.735 96.2008C212.066 97.5969 184.295 110.833 164.602 138.07C139.07 173.381 136.126 211.669 156.548 250.137C175.13 285.14 205.833 302.462 245.923 304.887C245.929 296.846 245.936 289.41 245.94 281.474Z" fill="white"/>
<path d="M380.193 294.196C364.213 294.196 350.364 290.68 338.645 283.649C326.926 276.618 317.835 266.781 311.372 254.139C304.98 241.497 301.784 226.724 301.784 209.821C301.784 192.918 304.98 178.109 311.372 165.396C317.835 152.683 326.926 142.811 338.645 135.78C350.364 128.749 364.213 125.233 380.193 125.233C396.173 125.233 410.023 128.749 421.741 135.78C433.46 142.811 442.516 152.683 448.908 165.396C455.371 178.109 458.602 192.918 458.602 209.821C458.602 226.724 455.371 241.497 448.908 254.139C442.516 266.781 433.46 276.618 421.741 283.649C410.023 290.68 396.173 294.196 380.193 294.196ZM380.406 263.301C389.071 263.301 396.315 260.922 402.139 256.163C407.963 251.334 412.295 244.871 415.136 236.774C418.048 228.678 419.504 219.658 419.504 209.714C419.504 199.7 418.048 190.645 415.136 182.548C412.295 174.381 407.963 167.882 402.139 163.053C396.315 158.223 389.071 155.808 380.406 155.808C371.528 155.808 364.142 158.223 358.247 163.053C352.423 167.882 348.055 174.381 345.143 182.548C342.303 190.645 340.882 199.7 340.882 209.714C340.882 219.658 342.303 228.678 345.143 236.774C348.055 244.871 352.423 251.334 358.247 256.163C364.142 260.922 371.528 263.301 380.406 263.301ZM562.713 294.196C546.377 294.196 532.35 290.609 520.632 283.436C508.984 276.263 500 266.355 493.679 253.713C487.429 241 484.304 226.369 484.304 209.821C484.304 193.202 487.5 178.536 493.892 165.822C500.284 153.038 509.304 143.095 520.951 135.993C532.67 128.82 546.52 125.233 562.5 125.233C575.781 125.233 587.535 127.683 597.762 132.584C608.061 137.413 616.264 144.267 622.372 153.145C628.48 161.952 631.96 172.25 632.812 184.04H595.951C594.46 176.156 590.909 169.587 585.298 164.331C579.758 159.004 572.336 156.341 563.032 156.341C555.149 156.341 548.224 158.472 542.258 162.733C536.292 166.923 531.64 172.96 528.302 180.844C525.035 188.727 523.402 198.173 523.402 209.182C523.402 220.332 525.035 229.92 528.302 237.946C531.569 245.901 536.15 252.044 542.045 256.376C548.011 260.638 555.007 262.768 563.032 262.768C568.714 262.768 573.792 261.703 578.267 259.572C582.812 257.371 586.612 254.21 589.666 250.091C592.72 245.972 594.815 240.964 595.951 235.07H632.812C631.889 246.646 628.48 256.909 622.585 265.858C616.69 274.736 608.664 281.696 598.508 286.739C588.352 291.71 576.42 294.196 562.713 294.196ZM746.191 127.364V157.193H652.121V127.364H746.191ZM675.346 88.1591H713.911V241.781C713.911 246.966 714.692 250.943 716.255 253.713C717.888 256.412 720.019 258.259 722.647 259.253C725.275 260.247 728.187 260.744 731.383 260.744C733.798 260.744 735.999 260.567 737.988 260.212C740.048 259.857 741.61 259.537 742.675 259.253L749.174 289.402C747.114 290.112 744.167 290.893 740.332 291.746C736.567 292.598 731.951 293.095 726.482 293.237C716.823 293.521 708.123 292.065 700.381 288.869C692.64 285.602 686.496 280.56 681.951 273.741C677.477 266.923 675.275 258.401 675.346 248.173V88.1591ZM825.532 294.303C815.163 294.303 805.824 292.456 797.514 288.763C789.275 284.999 782.741 279.459 777.912 272.143C773.153 264.828 770.774 255.808 770.774 245.084C770.774 235.851 772.478 228.216 775.887 222.179C779.297 216.142 783.949 211.312 789.843 207.69C795.738 204.068 802.379 201.334 809.765 199.487C817.223 197.57 824.929 196.185 832.883 195.332C842.471 194.338 850.248 193.45 856.214 192.669C862.18 191.817 866.512 190.538 869.211 188.834C871.981 187.058 873.366 184.324 873.366 180.631V179.991C873.366 171.966 870.987 165.751 866.228 161.348C861.47 156.945 854.616 154.743 845.667 154.743C836.221 154.743 828.728 156.803 823.189 160.922C817.72 165.041 814.027 169.906 812.109 175.517L776.1 170.403C778.941 160.46 783.629 152.151 790.163 145.474C796.697 138.727 804.687 133.685 814.133 130.347C823.579 126.938 834.02 125.233 845.454 125.233C853.338 125.233 861.186 126.156 868.998 128.003C876.811 129.849 883.949 132.903 890.412 137.165C896.875 141.355 902.059 147.072 905.966 154.317C909.943 161.561 911.931 170.616 911.931 181.483V291H874.858V268.521H873.579C871.235 273.067 867.933 277.328 863.672 281.305C859.481 285.212 854.19 288.372 847.798 290.787C841.477 293.131 834.055 294.303 825.532 294.303ZM835.547 265.964C843.288 265.964 850 264.437 855.681 261.384C861.363 258.259 865.731 254.139 868.785 249.026C871.91 243.912 873.473 238.337 873.473 232.3V213.017C872.265 214.011 870.206 214.935 867.294 215.787C864.453 216.639 861.257 217.385 857.706 218.024C854.154 218.663 850.639 219.232 847.159 219.729C843.679 220.226 840.66 220.652 838.103 221.007C832.35 221.788 827.201 223.067 822.656 224.842C818.11 226.618 814.524 229.104 811.896 232.3C809.268 235.425 807.954 239.473 807.954 244.445C807.954 251.547 810.547 256.909 815.731 260.531C820.916 264.153 827.521 265.964 835.547 265.964ZM989.275 195.119V291H950.71V127.364H987.571V155.169H989.488C993.252 146.007 999.254 138.727 1007.49 133.33C1015.8 127.932 1026.06 125.233 1038.28 125.233C1049.57 125.233 1059.41 127.648 1067.79 132.477C1076.24 137.307 1082.78 144.303 1087.39 153.464C1092.08 162.626 1094.39 173.741 1094.32 186.81V291H1055.75V192.776C1055.75 181.838 1052.91 173.28 1047.23 167.101C1041.62 160.922 1033.84 157.832 1023.9 157.832C1017.15 157.832 1011.15 159.324 1005.89 162.307C1000.71 165.219 996.626 169.445 993.643 174.984C990.731 180.524 989.275 187.236 989.275 195.119ZM1205.97 294.196C1189.56 294.196 1175.39 290.787 1163.46 283.969C1151.6 277.08 1142.47 267.349 1136.08 254.778C1129.69 242.136 1126.49 227.257 1126.49 210.141C1126.49 193.308 1129.69 178.536 1136.08 165.822C1142.54 153.038 1151.56 143.095 1163.14 135.993C1174.72 128.82 1188.32 125.233 1203.94 125.233C1214.03 125.233 1223.54 126.866 1232.49 130.134C1241.51 133.33 1249.47 138.301 1256.36 145.048C1263.32 151.795 1268.79 160.389 1272.76 170.83C1276.74 181.199 1278.73 193.557 1278.73 207.903V219.729H1144.6V193.734H1241.76C1241.69 186.348 1240.09 179.778 1236.97 174.026C1233.84 168.202 1229.47 163.621 1223.86 160.283C1218.32 156.945 1211.86 155.276 1204.47 155.276C1196.59 155.276 1189.67 157.193 1183.7 161.028C1177.73 164.793 1173.08 169.764 1169.74 175.943C1166.48 182.051 1164.81 188.763 1164.74 196.078V218.77C1164.74 228.287 1166.48 236.455 1169.96 243.273C1173.44 250.02 1178.3 255.205 1184.55 258.827C1190.8 262.378 1198.12 264.153 1206.5 264.153C1212.11 264.153 1217.19 263.372 1221.73 261.81C1226.28 260.176 1230.22 257.797 1233.56 254.672C1236.9 251.547 1239.42 247.676 1241.12 243.06L1277.13 247.108C1274.86 256.625 1270.53 264.935 1264.13 272.037C1257.81 279.068 1249.72 284.537 1239.84 288.443C1229.97 292.278 1218.68 294.196 1205.97 294.196Z" fill="white"/>
</svg>
