<svg width="176" height="60" viewBox="0 0 176 60" fill="none" xmlns="http://www.w3.org/2000/svg">
<g clip-path="url(#clip0_93_4662)">
<path d="M35.2031 32.6C31.3486 32.4626 27.5866 32.3466 23.8282 32.172C23.0473 32.1357 22.2701 31.9157 21.5062 31.7234C17.102 30.6158 14.8129 27.6393 13.9347 23.4295C13.8556 23.0473 13.7766 22.6649 13.5722 22.1886C12.3644 29.7979 7.58313 32.8371 0.000656128 32.5322C0.271893 26.258 2.79087 21.0849 7.9687 17.4193C14.6827 12.6671 21.9587 12.1246 29.2638 15.9364C35.9122 19.4049 39.1987 25.1293 39.6523 32.6006C38.1247 32.6006 36.7113 32.6006 35.2031 32.6Z" fill="white"/>
<path d="M9.90499 36.8664C12.1102 38.9195 12.9616 41.5458 13.6938 44.3076C13.7838 43.8732 13.8665 43.4371 13.9662 43.0046C15.1582 37.8069 18.0859 35.0889 23.7113 34.4699C27.2508 34.0803 30.8413 34.1184 34.4112 34.0064C36.1092 33.9531 37.8108 33.9972 39.6328 33.9972C39.2801 40.9523 36.3366 46.4336 30.3694 50.034C23.4303 54.2219 16.2614 54.1761 9.264 50.0619C2.57552 46.1295 -0.153889 38.8828 0.118565 34.0416C3.65316 34.0047 7.06004 34.3573 9.90499 36.8664Z" fill="white"/>
<path d="M57.7242 48.195C55.0751 48.195 52.8005 47.6121 50.8994 46.4462C49.0105 45.2803 47.5533 43.67 46.5292 41.6152C45.5148 39.5489 45.0088 37.1709 45.0088 34.4812C45.0088 31.78 45.5269 29.3962 46.5632 27.33C47.5995 25.2521 49.0628 23.636 50.9517 22.4816C52.8516 21.3157 55.0981 20.7327 57.6897 20.7327C59.8435 20.7327 61.7498 21.131 63.4084 21.9275C65.0785 22.7125 66.4088 23.8265 67.3993 25.2694C68.3899 26.7009 68.9543 28.3747 69.0926 30.2909H63.1147C62.8727 29.0096 62.2969 27.9418 61.387 27.0875C60.4885 26.2218 59.2849 25.7889 57.776 25.7889C56.4976 25.7889 55.3745 26.1351 54.407 26.8278C53.439 27.5088 52.6849 28.4901 52.1437 29.7714C51.6134 31.0527 51.3494 32.5881 51.3494 34.3773C51.3494 36.1898 51.6134 37.7481 52.1437 39.0525C52.674 40.3454 53.4159 41.344 54.3724 42.0481C55.34 42.7407 56.4745 43.087 57.776 43.087C58.6975 43.087 59.5211 42.9138 60.2467 42.5676C60.9838 42.2097 61.6 41.696 62.0953 41.0265C62.5906 40.3569 62.9304 39.5431 63.1147 38.585H69.0926C68.9428 40.4666 68.3899 42.1346 67.4339 43.5891C66.478 45.0321 65.1764 46.1634 63.5293 46.983C61.8823 47.7911 59.9471 48.195 57.7242 48.195ZM87.4798 21.0791V25.9274L72.2241 25.9274V21.0791L87.4798 21.0791ZM75.9904 14.7069H82.2448V39.6759C82.2448 40.5186 82.3715 41.165 82.6249 41.6152C82.8898 42.0539 83.2353 42.354 83.6615 42.5156C84.0876 42.6772 84.5599 42.758 85.0782 42.758C85.4698 42.758 85.8269 42.7291 86.1494 42.6715C86.4834 42.6137 86.7368 42.5618 86.9096 42.5156L87.9635 47.4158C87.6295 47.5313 87.1515 47.6583 86.5295 47.7968C85.919 47.9354 85.1704 48.0162 84.2834 48.0392C82.7169 48.0854 81.306 47.8487 80.0505 47.3293C78.7951 46.7983 77.7988 45.9788 77.0616 44.8706C76.3359 43.7624 75.979 42.3771 75.9904 40.7148V14.7069ZM100.347 48.2124C98.6652 48.2124 97.1506 47.9122 95.803 47.312C94.4669 46.7002 93.4072 45.7998 92.624 44.6108C91.8523 43.4218 91.4665 41.9558 91.4665 40.2126C91.4665 38.712 91.7428 37.4711 92.2957 36.4899C92.8486 35.5086 93.603 34.7237 94.5591 34.1349C95.5151 33.5462 96.592 33.1018 97.7898 32.8016C98.9993 32.4899 100.249 32.2649 101.539 32.1263C103.094 31.9647 104.355 31.8205 105.323 31.6934C106.29 31.555 106.993 31.3471 107.431 31.07C107.88 30.7815 108.104 30.3371 108.104 29.7368V29.633C108.104 28.3285 107.718 27.3184 106.947 26.6027C106.175 25.8869 105.063 25.5292 103.612 25.5292C102.08 25.5292 100.865 25.8639 99.9668 26.5335C99.0798 27.203 98.4809 27.9938 98.1699 28.9057L92.3303 28.0746C92.791 26.4584 93.5512 25.1078 94.6109 24.0227C95.6705 22.9261 96.9663 22.1064 98.4982 21.5639C100.03 21.0098 101.723 20.7327 103.578 20.7327C104.856 20.7327 106.129 20.8828 107.396 21.1829C108.663 21.4832 109.82 21.9795 110.869 22.6721C111.917 23.3531 112.758 24.2825 113.391 25.4599C114.036 26.6374 114.359 28.1092 114.359 29.8753V47.6756L108.346 47.6756V44.022H108.139C107.759 44.7609 107.223 45.4535 106.532 46.0999C105.852 46.7348 104.994 47.2485 103.958 47.641C102.933 48.0219 101.729 48.2124 100.347 48.2124ZM101.971 43.6064C103.226 43.6064 104.315 43.3583 105.236 42.8619C106.158 42.354 106.866 41.6844 107.361 40.8533C107.868 40.0222 108.122 39.116 108.122 38.1348V35.0007C107.926 35.1623 107.592 35.3124 107.12 35.4509C106.659 35.5894 106.141 35.7107 105.565 35.8145C104.989 35.9184 104.418 36.0108 103.854 36.0916C103.29 36.1723 102.8 36.2417 102.386 36.2993C101.453 36.4264 100.617 36.6341 99.8804 36.9227C99.1432 37.2113 98.5616 37.6154 98.1354 38.1348C97.7092 38.6428 97.4962 39.3007 97.4962 40.1087C97.4962 41.2631 97.9165 42.1346 98.7574 42.7234C99.5982 43.3122 100.669 43.6064 101.971 43.6064ZM126.902 32.0917V47.6756H120.647V21.0791H126.625V25.5984H126.936C127.547 24.1093 128.52 22.9261 129.856 22.0488C131.204 21.1715 132.868 20.7327 134.849 20.7327C136.681 20.7327 138.276 21.1253 139.635 21.9102C141.006 22.6952 142.065 23.8322 142.814 25.3213C143.574 26.8105 143.949 28.617 143.937 30.7412V47.6756H137.683V31.7108C137.683 29.9331 137.222 28.5421 136.301 27.5377C135.391 26.5334 134.129 26.0313 132.517 26.0313C131.423 26.0313 130.449 26.2737 129.597 26.7585C128.756 27.2319 128.094 27.9187 127.61 28.8191C127.138 29.7195 126.902 30.8104 126.902 32.0917ZM162.043 48.195C159.383 48.195 157.085 47.641 155.15 46.5328C153.226 45.413 151.746 43.8316 150.71 41.7884C149.673 39.7335 149.155 37.3151 149.155 34.5332C149.155 31.7973 149.673 29.3962 150.71 27.33C151.758 25.2521 153.221 23.636 155.098 22.4816C156.976 21.3157 159.181 20.7327 161.715 20.7327C163.351 20.7327 164.894 20.9982 166.345 21.5292C167.808 22.0488 169.098 22.8569 170.216 23.9535C171.344 25.0501 172.231 26.4468 172.876 28.1438C173.521 29.8291 173.844 31.8378 173.844 34.1696V36.0916H152.092V31.8667L167.849 31.8667C167.837 30.6661 167.578 29.5983 167.071 28.6632C166.564 27.7167 165.856 26.9721 164.946 26.4295C164.048 25.8869 162.999 25.6157 161.802 25.6157C160.523 25.6157 159.4 25.9274 158.433 26.5508C157.465 27.1625 156.711 27.9706 156.169 28.9749C155.639 29.9677 155.369 31.0586 155.357 32.2476V35.9357C155.357 37.4826 155.639 38.8101 156.204 39.9183C156.768 41.015 157.557 41.8577 158.571 42.4463C159.584 43.0235 160.771 43.3122 162.13 43.3122C163.04 43.3122 163.863 43.1852 164.6 42.9312C165.338 42.6657 165.977 42.2789 166.518 41.7711C167.06 41.2631 167.468 40.634 167.745 39.8837L173.585 40.5416C173.216 42.0885 172.513 43.4391 171.477 44.5935C170.452 45.7363 169.139 46.6252 167.538 47.2601C165.937 47.8835 164.105 48.195 162.043 48.195Z" fill="white"/>
</g>
<defs>
<clipPath id="clip0_93_4662">
<rect width="59" height="176" fill="white" transform="matrix(0 1 -1 0 176 0.5)"/>
</clipPath>
</defs>
</svg>
