<svg width="1920" height="892" viewBox="0 0 1920 892" fill="none" xmlns="http://www.w3.org/2000/svg">
<g opacity="0.03">
<path d="M-14.6348 40.4126C152.955 67.0476 140.884 170.041 308.474 196.676C476.063 223.311 488.133 120.317 655.675 146.945C823.216 173.572 811.194 276.573 978.783 303.208C1146.37 329.843 1158.44 226.85 1326.03 253.485C1493.62 280.12 1481.55 383.113 1649.19 409.756C1816.83 436.398 1828.85 333.397 1996.44 360.032" stroke="#A0A3BD" stroke-width="5" stroke-miterlimit="10"/>
<path d="M-111.246 864.781C56.3433 891.416 44.2731 994.41 211.863 1021.04C379.452 1047.68 391.522 944.686 559.063 971.313C726.604 997.941 714.583 1100.94 882.172 1127.58C1049.76 1154.21 1061.83 1051.22 1229.42 1077.85C1397.01 1104.49 1384.94 1207.48 1552.58 1234.12C1720.22 1260.77 1732.24 1157.77 1899.83 1184.4" stroke="#A0A3BD" stroke-width="5" stroke-miterlimit="10"/>
<path d="M-62.9414 452.598C104.648 479.233 92.5778 582.226 260.167 608.861C427.757 635.496 439.827 532.503 607.368 559.13C774.909 585.757 762.887 688.758 930.477 715.393C1098.07 742.028 1110.14 639.035 1277.73 665.67C1445.31 692.305 1433.24 795.298 1600.88 821.941C1768.52 848.584 1780.54 745.582 1948.13 772.217" stroke="#A0A3BD" stroke-width="5" stroke-miterlimit="10"/>
<path d="M-38.7793 246.4C128.81 273.035 116.715 376.238 284.305 402.873C451.894 429.508 463.989 326.305 631.53 352.932C799.071 379.559 787.025 482.77 954.614 509.405C1122.2 536.04 1134.3 432.837 1301.89 459.472C1469.48 486.107 1457.38 589.31 1625.02 615.953C1792.66 642.595 1804.7 539.384 1972.29 566.019" stroke="#A0A3BD" stroke-width="5" stroke-miterlimit="10"/>
<path d="M-87.1074 658.793C80.482 685.428 68.4118 788.422 236.001 815.057C403.591 841.692 415.661 738.698 583.202 765.325C750.743 791.952 738.721 894.954 906.311 921.589C1073.9 948.224 1085.97 845.23 1253.56 871.865C1421.15 898.5 1409.08 1001.49 1576.72 1028.14C1744.35 1054.78 1756.38 951.778 1923.97 978.412" stroke="#A0A3BD" stroke-width="5" stroke-miterlimit="10"/>
<path d="M-26.707 143.407C140.882 170.042 128.812 273.035 296.402 299.67C463.991 326.305 476.061 223.312 643.602 249.939C811.144 276.566 799.122 379.568 966.711 406.203C1134.3 432.837 1146.37 329.844 1313.96 356.479C1481.55 383.114 1469.48 486.107 1637.12 512.75C1804.75 539.393 1816.78 436.391 1984.37 463.026" stroke="#A0A3BD" stroke-width="5" stroke-miterlimit="10"/>
<path d="M-75.0098 555.592C92.5796 582.227 80.4849 685.43 248.074 712.065C415.664 738.7 427.758 635.497 595.3 662.124C762.841 688.751 750.794 791.962 918.384 818.597C1085.97 845.232 1098.07 742.029 1265.66 768.664C1433.25 795.299 1421.15 898.502 1588.79 925.144C1756.43 951.787 1768.47 848.576 1936.06 875.211" stroke="#A0A3BD" stroke-width="5" stroke-miterlimit="10"/>
<path d="M-50.8711 349.603C116.718 376.238 104.648 479.232 272.238 505.867C439.827 532.502 451.897 429.508 619.438 456.135C786.979 482.762 774.958 585.764 942.547 612.399C1110.14 639.034 1122.21 536.04 1289.8 562.675C1457.39 589.31 1445.32 692.304 1612.95 718.946C1780.59 745.589 1792.61 642.588 1960.2 669.223" stroke="#A0A3BD" stroke-width="5" stroke-miterlimit="10"/>
<path d="M-99.1758 761.788C68.4136 788.423 56.3434 891.416 223.933 918.051C391.522 944.686 403.592 841.692 571.134 868.32C738.675 894.947 726.653 997.948 894.242 1024.58C1061.83 1051.22 1073.9 948.225 1241.49 974.86C1409.08 1001.49 1397.01 1104.49 1564.65 1131.13C1732.29 1157.77 1744.31 1054.77 1911.9 1081.41" stroke="#A0A3BD" stroke-width="5" stroke-miterlimit="10"/>
<path d="M-20.6738 91.9092C146.916 118.544 134.845 221.538 302.435 248.173C470.024 274.808 482.094 171.814 649.636 198.441C817.177 225.069 805.155 328.07 972.744 354.705C1140.33 381.34 1152.4 278.346 1319.99 304.981C1487.58 331.616 1475.51 434.61 1643.15 461.252C1810.79 487.895 1822.81 384.894 1990.4 411.529" stroke="#A0A3BD" stroke-width="5" stroke-miterlimit="10"/>
<path d="M-68.9766 504.093C98.6128 530.728 86.5426 633.722 254.132 660.357C421.721 686.992 433.792 583.998 601.333 610.625C768.874 637.253 756.852 740.254 924.441 766.889C1092.03 793.524 1104.1 690.53 1271.69 717.165C1439.28 743.8 1427.21 846.794 1594.85 873.437C1762.48 900.079 1774.51 797.078 1942.1 823.713" stroke="#A0A3BD" stroke-width="5" stroke-miterlimit="10"/>
<path d="M-44.8359 298.107C122.753 324.742 110.683 427.736 278.273 454.371C445.862 481.005 457.932 378.012 625.473 404.639C793.015 431.266 780.993 534.268 948.582 560.903C1116.17 587.538 1128.24 484.544 1295.83 511.179C1463.42 537.814 1451.35 640.808 1618.99 667.45C1786.63 694.093 1798.65 591.091 1966.24 617.726" stroke="#A0A3BD" stroke-width="5" stroke-miterlimit="10"/>
<path d="M-93.1406 710.291C74.4488 736.925 62.3786 839.919 229.968 866.554C397.557 893.189 409.628 790.195 577.169 816.823C744.71 843.45 732.688 946.451 900.277 973.086C1067.87 999.721 1079.94 896.728 1247.53 923.363C1415.12 949.997 1403.05 1052.99 1570.68 1079.63C1738.32 1106.28 1750.34 1003.28 1917.93 1029.91" stroke="#A0A3BD" stroke-width="5" stroke-miterlimit="10"/>
<path d="M-32.7422 194.903C134.847 221.538 122.752 324.741 290.342 351.376C457.931 378.011 470.026 274.808 637.567 301.435C805.108 328.063 793.062 431.273 960.651 457.908C1128.24 484.543 1140.34 381.34 1307.92 407.975C1475.51 434.61 1463.42 537.813 1631.06 564.456C1798.69 591.099 1810.74 487.888 1978.33 514.523" stroke="#A0A3BD" stroke-width="5" stroke-miterlimit="10"/>
<path d="M-81.0469 607.087C86.5425 633.722 74.4478 736.925 242.037 763.56C409.627 790.195 421.721 686.992 589.263 713.62C756.804 740.247 744.757 843.458 912.347 870.093C1079.94 896.727 1092.03 793.524 1259.62 820.159C1427.21 846.794 1415.11 949.997 1582.75 976.64C1750.39 1003.28 1762.44 900.072 1930.03 926.707" stroke="#A0A3BD" stroke-width="5" stroke-miterlimit="10"/>
<path d="M-56.9062 401.1C110.683 427.735 98.613 530.729 266.202 557.364C433.792 583.999 445.862 481.005 613.403 507.632C780.944 534.26 768.922 637.261 936.512 663.896C1104.1 690.531 1116.17 587.537 1283.76 614.172C1451.35 640.807 1439.28 743.801 1606.92 770.443C1774.56 797.086 1786.58 694.085 1954.17 720.72" stroke="#A0A3BD" stroke-width="5" stroke-miterlimit="10"/>
<path d="M-105.213 813.284C62.3765 839.919 50.3063 942.912 217.896 969.547C385.485 996.182 397.555 893.189 565.097 919.816C732.638 946.443 720.616 1049.44 888.205 1076.08C1055.79 1102.71 1067.86 999.721 1235.45 1026.36C1403.04 1052.99 1390.97 1155.98 1558.61 1182.63C1726.25 1209.27 1738.27 1106.27 1905.86 1132.9" stroke="#A0A3BD" stroke-width="5" stroke-miterlimit="10"/>
</g>
</svg>
