<svg width="1920" height="3634" viewBox="0 0 1920 3634" fill="none" xmlns="http://www.w3.org/2000/svg">
<g opacity="0.03">
<path d="M-49.3848 786.669C119.953 790.958 119.357 882.226 288.695 886.514C458.033 890.803 458.629 799.535 627.918 803.823C797.207 808.11 796.66 899.379 965.998 903.668C1135.34 907.957 1135.93 816.689 1305.27 820.977C1474.61 825.266 1474.01 916.534 1643.4 920.824C1812.78 925.114 1813.33 833.845 1982.67 838.134" stroke="#A0A3BD" stroke-width="5" stroke-miterlimit="10"/>
<path d="M-54.1523 1517.19C115.186 1521.47 114.59 1612.74 283.928 1617.03C453.266 1621.32 453.861 1530.05 623.15 1534.34C792.44 1538.63 791.893 1629.9 961.23 1634.18C1130.57 1638.47 1131.16 1547.21 1300.5 1551.49C1469.84 1555.78 1469.24 1647.05 1638.63 1651.34C1808.02 1655.63 1808.56 1564.36 1977.9 1568.65" stroke="#A0A3BD" stroke-width="5" stroke-miterlimit="10"/>
<path d="M-51.7695 1151.93C117.568 1156.22 116.973 1247.48 286.31 1251.77C455.648 1256.06 456.244 1164.79 625.533 1169.08C794.822 1173.37 794.275 1264.64 963.613 1268.93C1132.95 1273.22 1133.55 1181.95 1302.88 1186.24C1472.22 1190.52 1471.63 1281.79 1641.01 1286.08C1810.4 1290.37 1810.95 1199.1 1980.28 1203.39" stroke="#A0A3BD" stroke-width="5" stroke-miterlimit="10"/>
<path d="M-56.5391 1882.44C112.799 1886.73 112.202 1978.18 281.54 1982.47C450.878 1986.76 451.475 1895.31 620.764 1899.6C790.053 1903.88 789.505 1995.34 958.842 1999.63C1128.18 2003.92 1128.78 1912.46 1298.12 1916.75C1467.45 1921.04 1466.86 2012.49 1636.24 2016.78C1805.63 2021.07 1806.18 1929.62 1975.52 1933.91" stroke="#A0A3BD" stroke-width="5" stroke-miterlimit="10"/>
<path d="M-59.8184 2384.79C109.52 2389.08 108.924 2480.34 278.262 2484.63C447.599 2488.92 448.195 2397.65 617.484 2401.94C786.774 2406.23 786.227 2497.5 955.564 2501.79C1124.9 2506.08 1125.5 2414.81 1294.84 2419.1C1464.17 2423.38 1463.58 2514.65 1632.96 2518.94C1802.35 2523.23 1802.9 2431.96 1972.24 2436.25" stroke="#A0A3BD" stroke-width="5" stroke-miterlimit="10"/>
<path d="M-50.5762 969.205C118.762 973.494 118.165 1064.95 287.503 1069.24C456.84 1073.53 457.437 982.071 626.727 986.359C796.016 990.646 795.468 1082.1 964.805 1086.39C1134.14 1090.68 1134.74 999.225 1304.08 1003.51C1473.42 1007.8 1472.82 1099.26 1642.21 1103.55C1811.59 1107.84 1812.14 1016.38 1981.48 1020.67" stroke="#A0A3BD" stroke-width="5" stroke-miterlimit="10"/>
<path d="M-55.3457 1699.91C113.992 1704.19 113.396 1795.46 282.734 1799.75C452.072 1804.04 452.668 1712.77 621.957 1717.06C791.246 1721.35 790.699 1812.62 960.037 1816.91C1129.37 1821.19 1129.97 1729.93 1299.31 1734.21C1468.65 1738.5 1468.05 1829.77 1637.44 1834.06C1806.82 1838.35 1807.37 1747.08 1976.71 1751.37" stroke="#A0A3BD" stroke-width="5" stroke-miterlimit="10"/>
<path d="M-52.9629 1334.65C116.375 1338.94 115.779 1430.21 285.117 1434.49C454.455 1438.78 455.051 1347.52 624.34 1351.8C793.629 1356.09 793.082 1447.36 962.42 1451.65C1131.76 1455.94 1132.35 1364.67 1301.69 1368.96C1471.03 1373.25 1470.43 1464.51 1639.82 1468.8C1809.21 1473.09 1809.75 1381.82 1979.09 1386.11" stroke="#A0A3BD" stroke-width="5" stroke-miterlimit="10"/>
<path d="M-57.7324 2065.16C111.605 2069.45 111.01 2160.72 280.348 2165.01C449.685 2169.3 450.281 2078.03 619.57 2082.32C788.859 2086.61 788.312 2177.87 957.65 2182.16C1126.99 2186.45 1127.58 2095.18 1296.92 2099.47C1466.26 2103.76 1465.66 2195.03 1635.05 2199.32C1804.44 2203.61 1804.98 2112.34 1974.32 2116.63" stroke="#A0A3BD" stroke-width="5" stroke-miterlimit="10"/>
<path d="M-61.0078 2567.33C108.33 2571.61 107.733 2663.07 277.071 2667.36C446.409 2671.64 447.006 2580.19 616.295 2584.48C785.584 2588.77 785.036 2680.22 954.374 2684.51C1123.71 2688.8 1124.31 2597.34 1293.65 2601.63C1462.98 2605.92 1462.39 2697.38 1631.77 2701.67C1801.16 2705.96 1801.71 2614.5 1971.05 2618.79" stroke="#A0A3BD" stroke-width="5" stroke-miterlimit="10"/>
<path d="M-49.9785 877.938C119.359 882.226 118.764 973.495 288.101 977.783C457.439 982.072 458.035 890.804 627.324 895.091C796.613 899.379 796.066 990.648 965.404 994.937C1134.74 999.226 1135.34 907.958 1304.68 912.246C1474.01 916.535 1473.42 1007.8 1642.8 1012.09C1812.19 1016.38 1812.74 925.114 1982.08 929.402" stroke="#A0A3BD" stroke-width="5" stroke-miterlimit="10"/>
<path d="M-54.75 1608.45C114.588 1612.74 113.991 1704.2 283.329 1708.48C452.667 1712.77 453.264 1621.32 622.553 1625.61C791.842 1629.89 791.294 1721.35 960.632 1725.64C1129.97 1729.93 1130.57 1638.47 1299.9 1642.76C1469.24 1647.05 1468.65 1738.5 1638.03 1742.79C1807.42 1747.08 1807.97 1655.63 1977.3 1659.92" stroke="#A0A3BD" stroke-width="5" stroke-miterlimit="10"/>
<path d="M-52.3633 1243.2C116.975 1247.49 116.378 1338.94 285.715 1343.23C455.053 1347.52 455.65 1256.06 624.939 1260.35C794.229 1264.64 793.68 1356.09 963.018 1360.38C1132.36 1364.67 1132.95 1273.22 1302.29 1277.5C1471.63 1281.79 1471.03 1373.25 1640.42 1377.54C1809.81 1381.83 1810.35 1290.37 1979.69 1294.66" stroke="#A0A3BD" stroke-width="5" stroke-miterlimit="10"/>
<path d="M-57.1348 1973.9C112.203 1978.19 111.607 2069.45 280.945 2073.74C450.283 2078.03 450.879 1986.76 620.168 1991.05C789.457 1995.34 788.91 2086.61 958.248 2090.9C1127.59 2095.18 1128.18 2003.92 1297.52 2008.2C1466.86 2012.49 1466.26 2103.76 1635.65 2108.05C1805.03 2112.34 1805.58 2021.07 1974.92 2025.36" stroke="#A0A3BD" stroke-width="5" stroke-miterlimit="10"/>
<path d="M-60.4121 2476.06C108.926 2480.34 108.33 2571.61 277.668 2575.9C447.006 2580.19 447.602 2488.92 616.891 2493.21C786.18 2497.5 785.633 2588.77 954.971 2593.06C1124.31 2597.34 1124.9 2506.08 1294.24 2510.36C1463.58 2514.65 1462.98 2605.92 1632.37 2610.21C1801.76 2614.5 1802.3 2523.23 1971.64 2527.52" stroke="#A0A3BD" stroke-width="5" stroke-miterlimit="10"/>
<path d="M-51.1719 1060.66C118.166 1064.95 117.57 1156.22 286.908 1160.5C456.246 1164.79 456.842 1073.53 626.131 1077.81C795.42 1082.1 794.873 1173.37 964.211 1177.66C1133.55 1181.95 1134.14 1090.68 1303.48 1094.97C1472.82 1099.26 1472.22 1190.52 1641.61 1194.81C1811 1199.1 1811.54 1107.84 1980.88 1112.12" stroke="#A0A3BD" stroke-width="5" stroke-miterlimit="10"/>
<path d="M-55.9414 1791.18C113.396 1795.46 112.801 1886.73 282.139 1891.02C451.476 1895.31 452.072 1804.04 621.361 1808.33C790.651 1812.62 790.103 1903.89 959.441 1908.17C1128.78 1912.46 1129.37 1821.2 1298.71 1825.48C1468.05 1829.77 1467.45 1921.04 1636.84 1925.33C1806.23 1929.62 1806.78 1838.35 1976.11 1842.64" stroke="#A0A3BD" stroke-width="5" stroke-miterlimit="10"/>
<path d="M-59.2207 2293.52C110.117 2297.81 109.521 2389.08 278.859 2393.37C448.197 2397.66 448.793 2306.39 618.082 2310.67C787.371 2314.96 786.824 2406.23 956.162 2410.52C1125.5 2414.81 1126.1 2323.54 1295.43 2327.83C1464.77 2332.12 1464.18 2423.39 1633.56 2427.68C1802.95 2431.97 1803.5 2340.7 1972.83 2344.99" stroke="#A0A3BD" stroke-width="5" stroke-miterlimit="10"/>
<path d="M-53.5566 1425.92C115.781 1430.21 115.185 1521.47 284.523 1525.76C453.861 1530.05 454.457 1438.78 623.746 1443.07C793.035 1447.36 792.488 1538.63 961.826 1542.92C1131.16 1547.2 1131.76 1455.94 1301.1 1460.22C1470.44 1464.51 1469.84 1555.78 1639.23 1560.07C1808.61 1564.36 1809.16 1473.09 1978.5 1477.38" stroke="#A0A3BD" stroke-width="5" stroke-miterlimit="10"/>
<path d="M-58.3262 2156.43C111.012 2160.72 110.416 2251.99 279.754 2256.28C449.092 2260.57 449.687 2169.3 618.977 2173.59C788.266 2177.87 787.719 2269.14 957.057 2273.43C1126.39 2277.72 1126.99 2186.45 1296.33 2190.74C1465.67 2195.03 1465.07 2286.3 1634.46 2290.59C1803.84 2294.88 1804.39 2203.61 1973.73 2207.9" stroke="#A0A3BD" stroke-width="5" stroke-miterlimit="10"/>
<path d="M-61.6055 2658.78C107.732 2663.07 107.137 2754.33 276.475 2758.62C445.812 2762.91 446.408 2671.64 615.697 2675.93C784.986 2680.22 784.439 2771.49 953.777 2775.78C1123.12 2780.07 1123.71 2688.8 1293.05 2693.09C1462.39 2697.37 1461.79 2788.64 1631.18 2792.93C1800.56 2797.22 1801.11 2705.95 1970.45 2710.24" stroke="#A0A3BD" stroke-width="5" stroke-miterlimit="10"/>
<path d="M-49.6836 832.303C119.654 836.592 119.059 927.86 288.396 932.148C457.734 936.437 458.33 845.169 627.619 849.457C796.908 853.744 796.361 945.013 965.699 949.302C1135.04 953.591 1135.63 862.323 1304.97 866.611C1474.31 870.9 1473.71 962.168 1643.1 966.458C1812.49 970.748 1813.03 879.479 1982.37 883.768" stroke="#A0A3BD" stroke-width="5" stroke-miterlimit="10"/>
<path d="M-54.4531 1562.82C114.885 1567.11 114.288 1658.56 283.626 1662.85C452.964 1667.14 453.561 1575.68 622.85 1579.97C792.139 1584.26 791.591 1675.71 960.928 1680C1130.27 1684.29 1130.86 1592.84 1300.2 1597.13C1469.54 1601.42 1468.94 1692.87 1638.33 1697.16C1807.72 1701.45 1808.26 1609.99 1977.6 1614.28" stroke="#A0A3BD" stroke-width="5" stroke-miterlimit="10"/>
<path d="M-52.0684 1197.56C117.27 1201.85 116.674 1293.12 286.012 1297.41C455.349 1301.69 455.945 1210.43 625.234 1214.71C794.524 1219 793.977 1310.27 963.314 1314.56C1132.65 1318.85 1133.25 1227.58 1302.59 1231.87C1471.92 1236.16 1471.33 1327.43 1640.71 1331.72C1810.1 1336.01 1810.65 1244.74 1979.99 1249.03" stroke="#A0A3BD" stroke-width="5" stroke-miterlimit="10"/>
<path d="M-56.834 1928.08C112.504 1932.37 111.907 2023.82 281.245 2028.11C450.583 2032.4 451.18 1940.94 620.469 1945.23C789.758 1949.52 789.21 2040.97 958.548 2045.26C1127.89 2049.55 1128.48 1958.1 1297.82 1962.39C1467.16 1966.67 1466.56 2058.13 1635.95 2062.42C1805.33 2066.71 1805.88 1975.25 1975.22 1979.54" stroke="#A0A3BD" stroke-width="5" stroke-miterlimit="10"/>
<path d="M-60.1133 2430.42C109.225 2434.71 108.629 2525.98 277.967 2530.27C447.305 2534.56 447.9 2443.29 617.189 2447.58C786.479 2451.86 785.932 2543.13 955.269 2547.42C1124.61 2551.71 1125.2 2460.44 1294.54 2464.73C1463.88 2469.02 1463.28 2560.29 1632.67 2564.58C1802.06 2568.87 1802.6 2477.6 1971.94 2481.89" stroke="#A0A3BD" stroke-width="5" stroke-miterlimit="10"/>
<path d="M-50.875 1015.03C118.463 1019.31 117.867 1110.58 287.205 1114.87C456.543 1119.16 457.139 1027.89 626.428 1032.18C795.717 1036.47 795.17 1127.74 964.508 1132.03C1133.85 1136.31 1134.44 1045.05 1303.78 1049.33C1473.12 1053.62 1472.52 1144.89 1641.91 1149.18C1811.29 1153.47 1811.84 1062.2 1981.18 1066.49" stroke="#A0A3BD" stroke-width="5" stroke-miterlimit="10"/>
<path d="M-55.6406 1745.54C113.697 1749.83 113.101 1841.1 282.439 1845.39C451.777 1849.67 452.373 1758.41 621.662 1762.69C790.951 1766.98 790.404 1858.25 959.742 1862.54C1129.08 1866.83 1129.68 1775.56 1299.01 1779.85C1468.35 1784.14 1467.76 1875.41 1637.14 1879.7C1806.53 1883.99 1807.08 1792.72 1976.41 1797.01" stroke="#A0A3BD" stroke-width="5" stroke-miterlimit="10"/>
<path d="M-58.9199 2247.7C110.418 2251.99 109.821 2343.44 279.159 2347.73C448.497 2352.02 449.094 2260.57 618.383 2264.85C787.672 2269.14 787.124 2360.6 956.462 2364.89C1125.8 2369.17 1126.4 2277.72 1295.73 2282.01C1465.07 2286.3 1464.48 2377.75 1633.86 2382.04C1803.25 2386.33 1803.8 2294.88 1973.13 2299.17" stroke="#A0A3BD" stroke-width="5" stroke-miterlimit="10"/>
<path d="M-53.2598 1380.28C116.078 1384.57 115.482 1475.84 284.82 1480.13C454.158 1484.42 454.754 1393.15 624.043 1397.44C793.332 1401.72 792.785 1492.99 962.123 1497.28C1131.46 1501.57 1132.06 1410.3 1301.39 1414.59C1470.73 1418.88 1470.14 1510.15 1639.52 1514.44C1808.91 1518.73 1809.46 1427.46 1978.79 1431.75" stroke="#A0A3BD" stroke-width="5" stroke-miterlimit="10"/>
<path d="M-58.0273 2110.8C111.311 2115.09 110.715 2206.36 280.053 2210.64C449.391 2214.93 449.986 2123.66 619.275 2127.95C788.565 2132.24 788.018 2223.51 957.355 2227.8C1126.69 2232.09 1127.29 2140.82 1296.63 2145.11C1465.96 2149.4 1465.37 2240.66 1634.76 2244.95C1804.14 2249.24 1804.69 2157.97 1974.03 2162.26" stroke="#A0A3BD" stroke-width="5" stroke-miterlimit="10"/>
<path d="M-61.3066 2613.14C108.031 2617.43 107.435 2708.7 276.773 2712.99C446.111 2717.28 446.707 2626.01 615.996 2630.3C785.285 2634.59 784.738 2725.85 954.076 2730.14C1123.41 2734.43 1124.01 2643.16 1293.35 2647.45C1462.69 2651.74 1462.09 2743.01 1631.48 2747.3C1800.86 2751.59 1801.41 2660.32 1970.75 2664.61" stroke="#A0A3BD" stroke-width="5" stroke-miterlimit="10"/>
<path d="M-50.2773 923.571C119.061 927.86 118.464 1019.31 287.801 1023.6C457.139 1027.89 457.736 936.437 627.025 940.724C796.315 945.012 795.766 1036.47 965.104 1040.76C1134.44 1045.04 1135.04 953.591 1304.38 957.879C1473.71 962.168 1473.12 1053.62 1642.5 1057.91C1811.89 1062.2 1812.44 970.747 1981.78 975.035" stroke="#A0A3BD" stroke-width="5" stroke-miterlimit="10"/>
<path d="M-55.0469 1654.27C114.291 1658.56 113.695 1749.83 283.033 1754.12C452.371 1758.41 452.967 1667.14 622.256 1671.43C791.545 1675.71 790.998 1766.98 960.336 1771.27C1129.67 1775.56 1130.27 1684.29 1299.61 1688.58C1468.95 1692.87 1468.35 1784.14 1637.74 1788.43C1807.12 1792.72 1807.67 1701.45 1977.01 1705.74" stroke="#A0A3BD" stroke-width="5" stroke-miterlimit="10"/>
<path d="M-52.6641 1288.83C116.674 1293.12 116.077 1384.57 285.415 1388.86C454.753 1393.15 455.35 1301.69 624.639 1305.98C793.928 1310.27 793.38 1401.72 962.717 1406.01C1132.06 1410.3 1132.65 1318.85 1301.99 1323.14C1471.33 1327.43 1470.73 1418.88 1640.12 1423.17C1809.5 1427.46 1810.05 1336 1979.39 1340.29" stroke="#A0A3BD" stroke-width="5" stroke-miterlimit="10"/>
<path d="M-57.4316 2019.53C111.906 2023.82 111.31 2115.09 280.648 2119.38C449.986 2123.66 450.582 2032.4 619.871 2036.68C789.16 2040.97 788.613 2132.24 957.951 2136.53C1127.29 2140.82 1127.88 2049.55 1297.22 2053.84C1466.56 2058.13 1465.96 2149.4 1635.35 2153.69C1804.74 2157.98 1805.28 2066.71 1974.62 2070.99" stroke="#A0A3BD" stroke-width="5" stroke-miterlimit="10"/>
<path d="M-60.7109 2521.69C108.627 2525.98 108.03 2617.43 277.368 2621.72C446.706 2626.01 447.303 2534.56 616.592 2538.84C785.881 2543.13 785.333 2634.59 954.671 2638.87C1124.01 2643.16 1124.61 2551.71 1293.94 2556C1463.28 2560.29 1462.68 2651.74 1632.07 2656.03C1801.46 2660.32 1802.01 2568.87 1971.34 2573.15" stroke="#A0A3BD" stroke-width="5" stroke-miterlimit="10"/>
<path d="M-51.4727 1106.29C117.865 1110.58 117.269 1201.85 286.607 1206.14C455.945 1210.43 456.541 1119.16 625.83 1123.45C795.119 1127.73 794.572 1219 963.91 1223.29C1133.25 1227.58 1133.84 1136.31 1303.18 1140.6C1472.52 1144.89 1471.92 1236.16 1641.31 1240.45C1810.7 1244.74 1811.24 1153.47 1980.58 1157.76" stroke="#A0A3BD" stroke-width="5" stroke-miterlimit="10"/>
<path d="M-56.2383 1836.81C113.1 1841.1 112.504 1932.36 281.842 1936.65C451.18 1940.94 451.775 1849.67 621.064 1853.96C790.354 1858.25 789.807 1949.52 959.144 1953.81C1128.48 1958.1 1129.08 1866.83 1298.42 1871.12C1467.75 1875.41 1467.16 1966.67 1636.54 1970.96C1805.93 1975.25 1806.48 1883.98 1975.82 1888.27" stroke="#A0A3BD" stroke-width="5" stroke-miterlimit="10"/>
<path d="M-59.5156 2339.15C109.822 2343.44 109.226 2434.71 278.564 2439C447.902 2443.29 448.498 2352.02 617.787 2356.31C787.076 2360.59 786.529 2451.86 955.867 2456.15C1125.21 2460.44 1125.8 2369.17 1295.14 2373.46C1464.48 2377.75 1463.88 2469.02 1633.27 2473.31C1802.65 2477.6 1803.2 2386.33 1972.54 2390.62" stroke="#A0A3BD" stroke-width="5" stroke-miterlimit="10"/>
<path d="M-53.8574 1471.55C115.48 1475.84 114.885 1567.11 284.223 1571.4C453.56 1575.69 454.156 1484.42 623.445 1488.7C792.734 1492.99 792.187 1584.26 961.525 1588.55C1130.86 1592.84 1131.46 1501.57 1300.8 1505.86C1470.13 1510.15 1469.54 1601.42 1638.93 1605.71C1808.31 1610 1808.86 1518.73 1978.2 1523.02" stroke="#A0A3BD" stroke-width="5" stroke-miterlimit="10"/>
<path d="M-58.625 2202.07C110.713 2206.35 110.116 2297.81 279.454 2302.1C448.792 2306.39 449.389 2214.93 618.678 2219.22C787.967 2223.51 787.419 2314.96 956.757 2319.25C1126.09 2323.54 1126.69 2232.09 1296.03 2236.37C1465.37 2240.66 1464.77 2332.12 1634.16 2336.41C1803.54 2340.7 1804.09 2249.24 1973.43 2253.53" stroke="#A0A3BD" stroke-width="5" stroke-miterlimit="10"/>
<path d="M-61.9043 2704.41C107.434 2708.7 106.838 2799.97 276.176 2804.26C445.514 2808.55 446.109 2717.28 615.398 2721.57C784.688 2725.85 784.141 2817.12 953.478 2821.41C1122.82 2825.7 1123.41 2734.43 1292.75 2738.72C1462.09 2743.01 1461.49 2834.28 1630.88 2838.57C1800.27 2842.86 1800.81 2751.59 1970.15 2755.88" stroke="#A0A3BD" stroke-width="5" stroke-miterlimit="10"/>
</g>
</svg>
